<svg xmlns="http://www.w3.org/2000/svg" xmlns:xlink="http://www.w3.org/1999/xlink" x="0" y="0" enable-background="new 0 0 83.4 83.4" version="1.0" viewBox="0 0 83.4 83.4" xml:space="preserve"><g id="Layer_1"><g id="File_x2C__general"><title>Sheet.1071</title></g><g id="Settings"><path fill="#2A3282" d="M61,46.3l-3.3-1.4c-0.5-0.2-1-0.5-0.9-0.6c0-0.1,0.1-0.7,0.1-1.3l0-2.7c0-0.6-0.1-1.2-0.1-1.3 c0-0.1,0.4-0.4,0.9-0.6l3.3-1.3c0.5-0.2,0.8-0.8,0.6-1.4L60,31.8c-0.2-0.5-0.8-0.8-1.4-0.6l-3.3,1.3c-0.5,0.2-1,0.3-1.1,0.2 c-0.1-0.1-0.4-0.5-0.8-1L51.5,30c-0.4-0.4-0.9-0.7-1-0.8c-0.1-0.1,0-0.6,0.2-1.1l1.4-3.3c0.2-0.5,0-1.2-0.6-1.4l-3.9-1.6 c-0.5-0.2-1.2,0-1.4,0.6l-1.4,3.3c-0.2,0.5-0.5,1-0.6,0.9c-0.1,0-0.7-0.1-1.3-0.2c0,0-0.6-0.1-1.4-0.1c-0.8,0-1.3,0.1-1.3,0.1 c-0.6,0.1-1.1,0.1-1.3,0.2c-0.1,0-0.4-0.4-0.6-0.9l-1.3-3.3c-0.2-0.5-0.8-0.8-1.4-0.6l-3.9,1.6c-0.5,0.2-0.8,0.8-0.6,1.4l1.3,3.3 c0.2,0.5,0.3,1,0.2,1.1c-0.1,0.1-0.5,0.4-1,0.8L30,31.9c-0.4,0.4-0.7,0.9-0.8,1c-0.1,0.1-0.6,0-1.1-0.2l-3.3-1.4 c-0.5-0.2-1.2,0-1.4,0.6l-1.6,3.9c-0.2,0.5,0,1.2,0.6,1.4l3.3,1.4c0.5,0.2,1,0.5,0.9,0.6c0,0.1-0.1,0.7-0.1,1.3l0,2.7 c0,0.6,0.1,1.1,0.1,1.3c0,0.1-0.4,0.4-0.9,0.6l-3.3,1.3c-0.5,0.2-0.8,0.8-0.6,1.4l1.6,3.9c0.2,0.5,0.8,0.8,1.4,0.6l3.3-1.3 c0.5-0.2,1-0.3,1.1-0.2c0.1,0.1,0.4,0.5,0.8,1l1.9,1.9c0.4,0.4,0.9,0.7,1,0.8c0.1,0.1,0,0.6-0.2,1.1l-1.4,3.3 c-0.2,0.5,0,1.2,0.6,1.4l3.9,1.6c0.5,0.2,1.2,0,1.4-0.6l1.4-3.3c0.2-0.5,0.5-1,0.6-0.9c0.1,0,0.7,0.1,1.3,0.2c0,0,0.6,0.1,1.4,0.1 c0.8,0,1.3-0.1,1.3-0.1c0.6-0.1,1.1-0.1,1.3-0.2c0.1,0,0.4,0.4,0.6,0.9l1.3,3.3c0.2,0.5,0.8,0.8,1.4,0.6l3.9-1.6 c0.5-0.2,0.8-0.8,0.6-1.4l-1.3-3.3c-0.2-0.5-0.3-1-0.2-1.1c0.1-0.1,0.5-0.4,1-0.8l1.9-1.9c0.4-0.4,0.7-0.9,0.8-1 c0.1-0.1,0.6,0,1.1,0.2l3.3,1.4c0.5,0.2,1.2,0,1.4-0.6l1.6-3.9C61.8,47.1,61.6,46.5,61,46.3z M41.7,52.3 c-5.9,0-10.6-4.8-10.6-10.6c0-5.9,4.7-10.6,10.6-10.6s10.6,4.7,10.6,10.6C52.3,47.6,47.5,52.3,41.7,52.3z"/></g></g></svg>